# xmcd
#
# Track frame offsets:
# 150
# 21794
# 37204
# 58207
# 74593
# 104266
# 124411
# 140586
# 162377
# 180385
# 192682
# 211961
#
# Disc length: 3022 seconds
#
#
# Revision: 0
# Processed by: cddbd v1.5.2PL0 Copyright (c) Steve Scherf et al.
# Submitted via: FreeRIP 2.951 
#
DISCID=c00bcc0c
DTITLE=Arcanadh - Soundings
DYEAR=2004
DGENRE=Country
TTITLE0=Erin Gra mo Chroi
TTITLE1=William and Davey
TTITLE2=Lord Franklin
TTITLE3=The Goalpost
TTITLE4=Anachie Gordon
TTITLE5=Let The Cold Wind Blow
TTITLE6=Ceol an Phiobaire
TTITLE7=Lowlands of Holland
TTITLE8=Droichead na nDeor
TTITLE9=Ce a chuirfidh tu Liom?
TTITLE10=Pretty Young Maid
TTITLE11=Guera Civil
EXTD=
EXTT0=
EXTT1=
EXTT2=
EXTT3=
EXTT4=
EXTT5=
EXTT6=
EXTT7=
EXTT8=
EXTT9=
EXTT10=
EXTT11=
PLAYORDER=
